<?xml version="1.0" encoding="UTF-8"?><svg xmlns="http://www.w3.org/2000/svg" viewBox="0 0 32 32"><defs><style>.f{fill:#fff;}</style></defs><g id="a"/><g id="b"><g id="c"><g id="d"><g id="e"><path class="f" d="M20.42,11.58l-.03-.03c-2.43-2.42-6.37-2.41-8.79,.02-1.89,1.9-2.35,4.79-1.14,7.18l.27,.54-.51,2.48v.03l2.46-.58,.56,.28c2.39,1.19,5.27,.72,7.16-1.17,2.41-2.42,2.41-6.32,.02-8.75h0Zm-.25,6.95c-.3,.47-.78,1.05-1.37,1.2-1.05,.25-2.65,0-4.66-1.85l-.03-.02c-1.75-1.63-2.21-2.99-2.11-4.06,.06-.61,.57-1.16,1-1.52,.24-.2,.6-.18,.8,.06,.04,.04,.07,.09,.09,.15l.65,1.47c.09,.19,.06,.42-.07,.58l-.33,.42c-.14,.18-.16,.42-.04,.62,.31,.46,.69,.87,1.11,1.23,.46,.44,.97,.81,1.54,1.1,.21,.09,.45,.03,.61-.13l.38-.38c.14-.16,.37-.23,.58-.18l1.54,.44c.3,.09,.48,.41,.39,.71-.02,.05-.04,.1-.07,.15h0Z"/><path class="f" d="M16,0C7.16,0,0,7.16,0,16s7.16,16,16,16,16-7.16,16-16S24.84,0,16,0Zm7.93,16.19c-.14,4.38-3.81,7.82-8.19,7.68-1.14-.04-2.25-.32-3.27-.82l-4,.95c-.12,.03-.25-.02-.32-.13-.05-.07-.07-.16-.05-.24l.84-4.09c-1.99-3.9-.44-8.68,3.46-10.68,3.9-1.99,8.68-.44,10.68,3.46,.61,1.19,.91,2.52,.86,3.86h0Z"/></g></g></g></g></svg>