<?xml version="1.0" encoding="UTF-8"?><svg xmlns="http://www.w3.org/2000/svg" viewBox="0 0 34 25.46"><defs><style>.d{fill:#fff;}</style></defs><g id="a"/><g id="b"><g id="c"><path class="d" d="M19.84,16.56c-.85,.56-1.83,.86-2.84,.86s-2-.3-2.84-.86L.23,7.28c-.08-.05-.15-.11-.23-.16v15.22c0,1.74,1.42,3.13,3.13,3.13H30.87c1.74,0,3.13-1.42,3.13-3.13V7.11c-.07,.06-.15,.11-.23,.16l-13.93,9.29ZM1.33,5.62L15.26,14.91c.53,.35,1.13,.53,1.74,.53s1.21-.18,1.74-.53l13.93-9.29c.83-.56,1.33-1.49,1.33-2.49,0-1.73-1.4-3.13-3.13-3.13H3.13C1.4,0,0,1.4,0,3.13c0,1,.5,1.93,1.33,2.49Z"/></g></g></svg>