<?xml version="1.0" encoding="UTF-8"?><svg xmlns="http://www.w3.org/2000/svg" viewBox="0 0 32 32"><defs><style>.f{fill:#fff;}</style></defs><g id="a"/><g id="b"><g id="c"><g id="d"><g id="e"><circle class="f" cx="16" cy="16" r="2.53"/><path class="f" d="M19.23,9.61h-6.47c-1.74,0-3.16,1.41-3.16,3.16v6.47c0,1.74,1.41,3.16,3.16,3.16h6.47c1.74,0,3.16-1.41,3.16-3.16v-6.47c0-1.74-1.41-3.16-3.16-3.16Zm-3.23,10.53c-2.29,0-4.14-1.85-4.14-4.14,0-2.29,1.85-4.14,4.14-4.14,2.29,0,4.14,1.85,4.14,4.14h0c0,2.29-1.85,4.14-4.14,4.14Zm4.16-7.25c-.57,0-1.02-.46-1.03-1.02s.46-1.02,1.02-1.03c.57,0,1.02,.46,1.03,1.02h0c0,.57-.46,1.02-1.02,1.03Z"/><path class="f" d="M16,0C7.16,0,0,7.16,0,16s7.16,16,16,16,16-7.16,16-16S24.84,0,16,0Zm8,19.23c0,2.63-2.13,4.76-4.77,4.77h-6.47c-2.63,0-4.76-2.14-4.77-4.77v-6.47c0-2.63,2.14-4.76,4.77-4.77h6.47c2.63,0,4.76,2.14,4.77,4.77v6.47Z"/></g></g></g></g></svg>