<?xml version="1.0" encoding="UTF-8"?><svg xmlns="http://www.w3.org/2000/svg" viewBox="0 0 32 32"><defs><style>.d{fill:#fff;}</style></defs><g id="a"/><g id="b"><g id="c"><path class="d" d="M32,21.66c0-3.97-2.28-7.51-5.69-9.24-.11,7.61-6.28,13.79-13.89,13.89,1.72,3.41,5.27,5.69,9.24,5.69,1.86,0,3.67-.5,5.26-1.44l5.04,1.39-1.39-5.04c.94-1.59,1.44-3.4,1.44-5.26Zm-7.56-9.44C24.44,5.48,18.96,0,12.22,0S0,5.48,0,12.22c0,2.2,.58,4.33,1.69,6.21L.04,24.39l5.96-1.65c1.88,1.11,4.01,1.69,6.21,1.69,6.74,0,12.22-5.48,12.22-12.22Zm-11.59,6.97c-.25,.25-.55,.38-.91,.38s-.67-.13-.91-.38c-.25-.25-.37-.56-.37-.92s.13-.67,.38-.91c.25-.24,.55-.37,.9-.37s.65,.12,.9,.37c.25,.24,.38,.55,.38,.91s-.12,.67-.37,.92Zm3.25-8.86c-.25,.51-.56,.93-.92,1.26-.36,.33-.73,.65-1.1,.95-.37,.3-.69,.63-.97,.98-.28,.35-.43,.74-.46,1.15l-.05,.59h-1.44v-.88c0-.47,.11-.92,.33-1.35,.22-.43,.49-.79,.8-1.1,.31-.31,.63-.61,.96-.91,.32-.3,.59-.63,.82-1.01,.22-.37,.33-.75,.33-1.15,0-.65-.24-1.16-.72-1.55-.48-.39-1.12-.58-1.93-.58-.52,0-1.02,.09-1.5,.26-.48,.17-.83,.34-1.05,.5l-.35,.26-.88-1.61c.11-.09,.26-.21,.46-.35,.2-.14,.63-.33,1.3-.57,.67-.24,1.37-.35,2.09-.35,1.42,0,2.55,.33,3.39,1.01,.84,.67,1.27,1.58,1.27,2.73,0,.63-.13,1.2-.38,1.72Z"/></g></g></svg>