<?xml version="1.0" encoding="UTF-8"?><svg xmlns="http://www.w3.org/2000/svg" viewBox="0 0 32 32"><defs><style>.f{fill:#fff;}</style></defs><g id="a"/><g id="b"><g id="c"><g id="d"><g id="e"><path class="f" d="M16,0C7.16,0,0,7.16,0,16s7.16,16,16,16,16-7.16,16-16S24.84,0,16,0Zm4.05,14.48l-.27,2.23c-.02,.21-.21,.38-.42,.37h-2.32v6.61c0,.16-.13,.3-.29,.3h-2.36c-.17,0-.3-.14-.29-.3h0v-6.61h-1.74c-.23,0-.42-.19-.42-.42v-2.23c0-.23,.19-.42,.42-.42h1.74v-2.16c0-2.5,1.49-3.86,3.66-3.86h1.78c.23,0,.42,.19,.42,.42v1.88c0,.23-.19,.42-.42,.42h-1.09c-1.18,.02-1.41,.59-1.41,1.43v1.86h2.59c.23,0,.42,.2,.41,.43,0,.01,0,.03,0,.04h0Z"/></g></g></g></g></svg>